<?xml version="1.0" standalone="no"?>
<!DOCTYPE svg PUBLIC "-//W3C//DTD SVG 20010904//EN"
 "http://www.w3.org/TR/2001/REC-SVG-20010904/DTD/svg10.dtd">
<svg version="1.0" xmlns="http://www.w3.org/2000/svg"
 width="512.000000pt" height="512.000000pt" viewBox="0 0 512.000000 512.000000"
 preserveAspectRatio="xMidYMid meet">

<g transform="translate(0.000000,512.000000) scale(0.100000,-0.100000)"
fill="#ffc800" stroke="none">
<path d="M1715 4793 c-39 -10 -83 -53 -101 -98 -15 -40 -16 -68 -11 -203 12
-294 59 -545 144 -771 l39 -104 -53 -50 c-133 -125 -169 -300 -93 -453 40 -81
137 -173 217 -206 l58 -23 645 0 645 0 58 23 c129 53 241 203 253 343 11 117
-38 234 -136 322 l-48 44 35 88 c73 181 122 427 144 714 18 248 3 318 -82 361
-37 19 -61 20 -866 19 -455 -1 -837 -4 -848 -6z m1475 -346 c0 -57 -30 -277
-51 -376 -39 -181 -122 -401 -151 -401 -7 0 -30 -14 -50 -31 -67 -54 -71 -148
-11 -220 36 -43 80 -59 157 -59 87 0 112 -22 107 -93 0 -10 -12 -29 -26 -42
l-24 -25 -584 0 c-556 0 -586 1 -608 19 -34 28 -32 86 5 118 l28 24 308 -2
c225 -1 314 2 331 11 68 35 106 102 95 164 -4 19 -25 62 -48 97 -78 121 -97
193 -107 404 -6 135 -11 166 -29 202 -61 117 -230 104 -278 -22 -24 -63 -15
-322 15 -443 12 -46 21 -85 21 -88 0 -2 -40 -4 -89 -4 l-88 0 -31 68 c-45 96
-67 166 -96 295 -28 123 -56 322 -56 393 l0 44 630 0 630 0 0 -33z"/>
<path d="M1480 2785 c-51 -23 -76 -50 -131 -142 -123 -203 -241 -485 -304
-725 -144 -551 -93 -987 146 -1242 40 -42 100 -97 135 -122 134 -96 326 -166
539 -199 263 -39 1034 -45 1310 -10 545 70 845 292 951 701 32 124 43 344 25
515 -32 304 -133 624 -295 935 -81 154 -147 258 -180 279 -89 58 -221 -9 -242
-123 -6 -30 -1 -47 26 -97 167 -307 233 -455 295 -669 116 -399 122 -670 20
-882 -128 -266 -526 -386 -1235 -371 -501 10 -789 54 -962 144 -230 120 -322
347 -289 709 31 323 136 640 319 964 71 124 77 139 77 192 0 60 -17 94 -66
131 -35 25 -96 31 -139 12z"/>
<path d="M2495 2704 c-65 -33 -95 -82 -95 -151 l0 -39 -71 -18 c-202 -52 -349
-182 -394 -350 -24 -89 -16 -160 30 -252 60 -123 191 -219 355 -262 l75 -19 3
-138 3 -137 -28 7 c-45 10 -113 55 -123 78 -5 12 -12 39 -15 61 -4 25 -19 52
-44 78 -32 35 -45 41 -89 46 -106 10 -191 -80 -179 -191 19 -188 172 -336 404
-394 l73 -18 0 -38 c0 -123 127 -203 230 -146 50 28 79 73 88 135 l7 46 76 22
c109 31 184 73 256 139 74 69 107 124 129 208 40 157 -33 322 -187 424 -70 47
-211 105 -256 105 -23 0 -23 1 -23 145 0 80 2 145 5 145 16 0 103 -51 123 -72
12 -13 32 -55 45 -93 17 -55 29 -74 56 -92 91 -61 233 5 248 116 6 47 -20 153
-53 208 -62 106 -222 213 -366 244 -58 12 -58 12 -58 48 0 118 -128 206 -225
155z m-95 -644 l0 -120 -25 10 c-71 27 -135 82 -135 115 0 36 100 114 148 115
9 0 12 -31 12 -120z m418 -526 c52 -31 70 -63 54 -98 -13 -29 -64 -68 -114
-90 l-38 -15 0 121 0 120 28 -7 c15 -3 46 -18 70 -31z"/>
</g>
</svg>
